<svg xmlns="http://www.w3.org/2000/svg" viewBox="0 -1650.819864861292 18625.21973978123 2772.9889939712884">
<g stroke="#000000" fill="#000000" stroke-width="0" transform="matrix(1 0 0 -1 0 0)">
<text font-family="STIXGeneral,'Arial Unicode MS',serif" font-style="" font-weight="" stroke="none" transform="scale(26.77019689119171) matrix(1 0 0 -1 0 0)">
木</text>
<g transform="translate(803,0)">
<text font-family="STIXGeneral,'Arial Unicode MS',serif" font-style="" font-weight="" stroke="none" transform="scale(26.77019689119171) matrix(1 0 0 -1 0 0)">
材</text>
</g>
<g transform="translate(1606,0)">
<text font-family="STIXGeneral,'Arial Unicode MS',serif" font-style="" font-weight="" stroke="none" transform="scale(26.77019689119171) matrix(1 0 0 -1 0 0)">
の</text>
</g>
<g transform="translate(2409,0)">
<text font-family="STIXGeneral,'Arial Unicode MS',serif" font-style="" font-weight="" stroke="none" transform="scale(26.77019689119171) matrix(1 0 0 -1 0 0)">
含</text>
</g>
<g transform="translate(3212,0)">
<text font-family="STIXGeneral,'Arial Unicode MS',serif" font-style="" font-weight="" stroke="none" transform="scale(26.77019689119171) matrix(1 0 0 -1 0 0)">
水</text>
</g>
<g transform="translate(4015,0)">
<text font-family="STIXGeneral,'Arial Unicode MS',serif" font-style="" font-weight="" stroke="none" transform="scale(26.77019689119171) matrix(1 0 0 -1 0 0)">
率</text>
</g>
<path stroke-width="10" d="M56 347Q56 360 70 367H707Q722 359 722 347Q722 336 708 328L390 327H72Q56 332 56 347ZM56 153Q56 168 72 173H708Q722 163 722 153Q722 140 707 133H70Q56 140 56 153Z" transform="translate(5096,0)"/>
<g transform="translate(6277,0)">
<rect x="0" y="220" width="9485" height="60" stroke-width="10" stroke-linejoin="round" stroke-linecap="round"/>
<g transform="translate(2708,676)">
<text font-family="STIXGeneral,'Arial Unicode MS',serif" font-style="" font-weight="" stroke="none" transform="scale(26.77019689119171) matrix(1 0 0 -1 0 0)">
水</text>
<g transform="translate(803,0)">
<text font-family="STIXGeneral,'Arial Unicode MS',serif" font-style="" font-weight="" stroke="none" transform="scale(26.77019689119171) matrix(1 0 0 -1 0 0)">
分</text>
</g>
<g transform="translate(1606,0)">
<text font-family="STIXGeneral,'Arial Unicode MS',serif" font-style="" font-weight="" stroke="none" transform="scale(26.77019689119171) matrix(1 0 0 -1 0 0)">
の</text>
</g>
<g transform="translate(2409,0)">
<text font-family="STIXGeneral,'Arial Unicode MS',serif" font-style="" font-weight="" stroke="none" transform="scale(26.77019689119171) matrix(1 0 0 -1 0 0)">
質</text>
</g>
<g transform="translate(3265,0)">
<text font-family="STIXGeneral,'Arial Unicode MS',serif" font-style="" font-weight="" stroke="none" transform="scale(26.77019689119171) matrix(1 0 0 -1 0 0)">
量</text>
</g>
</g>
<g transform="translate(60,-844)">
<text font-family="STIXGeneral,'Arial Unicode MS',serif" font-style="" font-weight="" stroke="none" transform="scale(26.77019689119171) matrix(1 0 0 -1 0 0)">
木</text>
<g transform="translate(803,0)">
<text font-family="STIXGeneral,'Arial Unicode MS',serif" font-style="" font-weight="" stroke="none" transform="scale(26.77019689119171) matrix(1 0 0 -1 0 0)">
材</text>
</g>
<g transform="translate(1606,0)">
<text font-family="STIXGeneral,'Arial Unicode MS',serif" font-style="" font-weight="" stroke="none" transform="scale(26.77019689119171) matrix(1 0 0 -1 0 0)">
の</text>
</g>
<g transform="translate(2409,0)">
<text font-family="STIXGeneral,'Arial Unicode MS',serif" font-style="" font-weight="" stroke="none" transform="scale(26.77019689119171) matrix(1 0 0 -1 0 0)">
質</text>
</g>
<g transform="translate(3265,0)">
<text font-family="STIXGeneral,'Arial Unicode MS',serif" font-style="" font-weight="" stroke="none" transform="scale(26.77019689119171) matrix(1 0 0 -1 0 0)">
量</text>
</g>
<path stroke-width="10" d="M84 237T84 250T98 270H679Q694 262 694 250T679 230H98Q84 237 84 250Z" transform="translate(4291,0)"/>
<g transform="translate(5296,0)">
<text font-family="STIXGeneral,'Arial Unicode MS',serif" font-style="" font-weight="" stroke="none" transform="scale(26.77019689119171) matrix(1 0 0 -1 0 0)">
水</text>
</g>
<g transform="translate(6099,0)">
<text font-family="STIXGeneral,'Arial Unicode MS',serif" font-style="" font-weight="" stroke="none" transform="scale(26.77019689119171) matrix(1 0 0 -1 0 0)">
分</text>
</g>
<g transform="translate(6902,0)">
<text font-family="STIXGeneral,'Arial Unicode MS',serif" font-style="" font-weight="" stroke="none" transform="scale(26.77019689119171) matrix(1 0 0 -1 0 0)">
の</text>
</g>
<g transform="translate(7705,0)">
<text font-family="STIXGeneral,'Arial Unicode MS',serif" font-style="" font-weight="" stroke="none" transform="scale(26.77019689119171) matrix(1 0 0 -1 0 0)">
質</text>
</g>
<g transform="translate(8562,0)">
<text font-family="STIXGeneral,'Arial Unicode MS',serif" font-style="" font-weight="" stroke="none" transform="scale(26.77019689119171) matrix(1 0 0 -1 0 0)">
量</text>
</g>
</g>
</g>
<path stroke-width="10" d="M630 29Q630 9 609 9Q604 9 587 25T493 118L389 222L284 117Q178 13 175 11Q171 9 168 9Q160 9 154 15T147 29Q147 36 161 51T255 146L359 250L255 354Q174 435 161 449T147 471Q147 480 153 485T168 490Q173 490 175 489Q178 487 284 383L389 278L493 382Q570 459 587 475T609 491Q630 491 630 471Q630 464 620 453T522 355L418 250L522 145Q606 61 618 48T630 29Z" transform="translate(16104,0)"/>
<g transform="translate(17110,0)">
<path stroke-width="10" d="M213 578L200 573Q186 568 160 563T102 556H83V602H102Q149 604 189 617T245 641T273 663Q275 666 285 666Q294 666 302 660V361L303 61Q310 54 315 52T339 48T401 46H427V0H416Q395 3 257 3Q121 3 100 0H88V46H114Q136 46 152 46T177 47T193 50T201 52T207 57T213 61V578Z"/>
<path stroke-width="10" d="M96 585Q152 666 249 666Q297 666 345 640T423 548Q460 465 460 320Q460 165 417 83Q397 41 362 16T301 -15T250 -22Q224 -22 198 -16T137 16T82 83Q39 165 39 320Q39 494 96 585ZM321 597Q291 629 250 629Q208 629 178 597Q153 571 145 525T137 333Q137 175 145 125T181 46Q209 16 250 16Q290 16 318 46Q347 76 354 130T362 333Q362 478 354 524T321 597Z" transform="translate(505,0)"/>
<path stroke-width="10" d="M96 585Q152 666 249 666Q297 666 345 640T423 548Q460 465 460 320Q460 165 417 83Q397 41 362 16T301 -15T250 -22Q224 -22 198 -16T137 16T82 83Q39 165 39 320Q39 494 96 585ZM321 597Q291 629 250 629Q208 629 178 597Q153 571 145 525T137 333Q137 175 145 125T181 46Q209 16 250 16Q290 16 318 46Q347 76 354 130T362 333Q362 478 354 524T321 597Z" transform="translate(1010,0)"/>
</g>
</g>
</svg>
